<svg id="visual" viewBox="0 0 900 600" width="900" height="600" xmlns="http://www.w3.org/2000/svg" xmlns:xlink="http://www.w3.org/1999/xlink" version="1.1"><rect x="0" y="0" width="900" height="600" fill="#1f262c"></rect><defs><linearGradient id="grad1_0" x1="33.3%" y1="100%" x2="100%" y2="0%"><stop offset="20%" stop-color="#1f262c" stop-opacity="1"></stop><stop offset="80%" stop-color="#1f262c" stop-opacity="1"></stop></linearGradient></defs><defs><linearGradient id="grad2_0" x1="0%" y1="100%" x2="66.7%" y2="0%"><stop offset="20%" stop-color="#1f262c" stop-opacity="1"></stop><stop offset="80%" stop-color="#1f262c" stop-opacity="1"></stop></linearGradient></defs><g transform="translate(900, 600)"><path d="M-486.7 0C-484.9 -68.3 -483 -136.7 -449.7 -186.3C-416.4 -235.9 -351.8 -266.7 -301.9 -301.9C-252.1 -337.2 -217 -376.8 -169.1 -408.4C-121.3 -439.9 -60.6 -463.3 0 -486.7L0 0Z" fill="#3AB0FF"></path></g><g transform="translate(0, 0)"><path d="M486.7 0C480.3 64 473.8 127.9 449.7 186.3C425.6 244.6 384 297.4 335.2 335.2C286.4 372.9 230.4 395.8 173.4 418.5C116.3 441.3 58.2 464 0 486.7L0 0Z" fill="#1572A1"></path></g></svg>