<svg xmlns="http://www.w3.org/2000/svg" xmlns:xlink="http://www.w3.org/1999/xlink" version="1.1" x="0px" y="0px" viewBox="0 0 1080 1025.9" style="enable-background:new 0 0 1080 1025.9;" xml:space="preserve">
<style xmlns="http://www.w3.org/2000/svg" type="text/css">
	.st0{opacity:0.3;fill:#1c1b1a;}
	.st1{fill:#0B4870;}
	.st2{fill:#0E538C;}
	.st3{fill:#D3D3D3;}
	.st4{fill:#2A94F4;}
	.st5{fill:#1c1b1a;stroke:#2A94F4;stroke-width:18;stroke-linecap:round;stroke-miterlimit:10;}
</style>
<g xmlns="http://www.w3.org/2000/svg" id="design">
	<path class="st0" d="M388.8,196.6c-45.2,49-20,81.3-67.7,133.9c-46.6,51.4-81.7,32.7-128.2,85c-51.8,58.2-51.9,130.7-51.8,138.2   c0.7,61,30.6,146.6,90.7,167c62.2,21.1,105.7-44.8,234.7-40.3c27.8,1,41.7,1.4,57.6,8.6c74.9,34,53.1,136.5,110.9,180   c63.6,47.9,203.4,9.1,277.9-77.8c91.6-106.7,82.2-282.8,5.8-344.2c-75.7-60.7-190.7,12.1-234.7-49c-39.1-54.4,34.7-136-14.4-205.9   c-27.7-39.4-76.1-49-97.9-53.3C505.1,125.9,432.4,149.5,388.8,196.6z"/>
	<path class="st0" d="M731.9,766.7c18.6-52.4-11.3-68.9,8-124.9c18.9-54.7,52-51.8,70.5-107.1c20.6-61.6-3-117.3-5.5-123   c-20.5-46.5-71.5-102.4-124.3-98.4c-54.6,4.2-66.4,69-166.8,107.8c-21.6,8.4-32.5,12.6-47,12.2c-68.6-1.5-85.5-87.3-144-101.7   c-64.4-15.9-158.9,59.7-187.7,150.7c-35.3,111.8,29.6,243.8,108.3,265.8c77.9,21.7,142.3-71.8,196-39.3   c47.8,28.9,17.9,115.7,78.5,153.2c34.2,21.2,74.4,12.6,92.5,8.8C665.8,859.1,713.9,817.1,731.9,766.7z"/>
</g>
<g xmlns="http://www.w3.org/2000/svg" id="clock">
	<g>
		<circle class="st1" cx="526" cy="537.6" r="278.6"/>
		<circle class="st2" cx="526" cy="537.6" r="265.3"/>
		<path class="st3" d="M757.5,537.6c0,128-103.8,231.8-231.8,231.8c-115.1,0-210.6-83.8-228.7-193.8c-0.8-7.6-1.2-15.3-1.2-23.2    c0-128,103.8-231.8,231.8-231.8c115.1,0,210.6,83.9,228.7,193.8C757.2,522.1,757.5,529.8,757.5,537.6z"/>
		<path class="st3" d="M757.3,516.3c-18.1-109.9-113.6-193.8-228.7-193.8c-128,0-231.8,103.8-231.8,231.8c0,7.8,0.4,15.5,1.2,23.2    c-2-12.4-3.1-25.1-3.1-38c0-128,103.8-231.8,231.8-231.8C646.8,307.7,745.6,399.2,757.3,516.3z"/>
		<path class="st3" d="M757,514.4c-18.1-109.9-113.6-193.8-228.7-193.8c-128,0-231.8,103.8-231.8,231.8c0,7.8,0.4,15.5,1.2,23.2    c-2-12.4-3.1-25.1-3.1-38c0-128,103.8-231.8,231.8-231.8C646.5,305.8,745.3,397.3,757,514.4z"/>
		<g>
			<g>
				<line class="st3" x1="526" y1="342.7" x2="526" y2="367.2"/>
				<rect x="520.5" y="342.7" class="st4" width="11" height="24.5"/>
			</g>
			<g>
				<line class="st3" x1="526" y1="726.2" x2="526" y2="750.7"/>
				<rect x="520.5" y="726.2" class="st4" width="11" height="24.5"/>
			</g>
		</g>
		<g>
			<g>
				<line class="st3" x1="322" y1="524.6" x2="346.5" y2="524.6"/>
				<rect x="322" y="519.1" class="st4" width="24.5" height="11"/>
			</g>
			<g>
				<line class="st3" x1="705.5" y1="524.6" x2="730" y2="524.6"/>
				<rect x="705.5" y="519.1" class="st4" width="24.5" height="11"/>
			</g>
		</g>
	</g>
</g>
<g xmlns="http://www.w3.org/2000/svg" id="arrows">
	<line class="st5" x1="525.5" y1="525" x2="461" y2="589.6"/>
	<line class="st5" x1="526.7" y1="524.6" x2="593.4" y2="687.6"/>
	<circle class="st2" cx="526" cy="524.6" r="11.9"/>
</g>
</svg>